<?xml version="1.0" encoding="utf-8"?>
<svg width="256" height="256" viewBox="0 0 256 256" xmlns="http://www.w3.org/2000/svg">
  <rect style="fill: #00b3d3" id="retangulo" class="cls-1" x="6" y="9" width="245" height="245" rx="10" ry="10"/>
  <g style="fill: #ffffff" transform="matrix(0.1, 0, 0, -0.1, -381.224233, 755.045872)" fill="#000000" stroke="none">
    <path d="M 5511.611 7289.707 C 5495.758 7286.327 5481.521 7275.059 5473.755 7259.284 C 5470.843 7253.328 5470.196 7249.143 5470.034 7238.197 C 5470.034 7213.408 5465.989 7218.398 5553.998 7130.671 L 5631.815 7053.084 L 5493.816 6915.779 L 5355.979 6778.634 L 5248.071 6885.838 C 5124.955 7007.852 5133.853 7000.77 5106.836 7000.77 C 5093.085 7000.77 5090.496 7000.287 5081.921 6996.101 C 5069.626 6990.146 5059.272 6979.844 5053.772 6968.093 C 5049.889 6960.045 5049.404 6956.825 5049.404 6942.821 C 5049.404 6915.296 5045.521 6920.286 5140.163 6825.958 L 5221.862 6744.67 L 5102.468 6627.164 C 5036.785 6562.615 4867.4 6396.175 4725.842 6257.26 C 4584.283 6118.344 4444.99 5981.2 4416.193 5952.709 L 4363.614 5900.877 L 4382.704 5758.581 C 4393.058 5680.512 4401.956 5614.998 4402.28 5613.228 C 4402.927 5610.652 4367.011 5574.273 4234.027 5441.958 C 4141.165 5349.401 4065.128 5273.585 4065.452 5273.585 C 4065.613 5273.424 4087.777 5277.288 4114.795 5282.278 L 4163.814 5291.453 L 4305.696 5432.461 L 4447.579 5573.629 L 4583.474 5552.704 C 4658.217 5541.275 4720.988 5531.939 4722.93 5531.939 C 4726.327 5531.939 4759.492 5564.454 5407.748 6201.404 C 5589.752 6380.239 5588.134 6378.629 5589.752 6378.629 C 5590.723 6378.629 5626.962 6343.216 5670.643 6299.755 C 5761.563 6209.13 5758.004 6212.027 5783.889 6212.027 C 5796.346 6212.027 5799.744 6212.671 5807.671 6216.374 C 5820.452 6222.33 5830.644 6232.149 5836.953 6244.865 C 5841.645 6254.523 5842.131 6256.616 5842.131 6270.781 C 5841.969 6297.179 5847.955 6289.936 5726.133 6410.661 C 5667.569 6468.61 5619.682 6516.739 5619.682 6517.705 C 5619.682 6518.671 5681.32 6580.804 5756.71 6655.815 L 5893.9 6792.317 L 5971.555 6715.374 C 6059.402 6628.129 6056.329 6630.705 6079.948 6630.543 C 6096.45 6630.543 6107.613 6635.534 6119.423 6648.25 C 6132.689 6662.898 6136.733 6682.697 6130.262 6702.175 C 6127.35 6710.705 6116.835 6721.491 5841.483 6995.619 C 5588.296 7247.855 5554.646 7280.692 5546.071 7284.877 C 5535.232 7290.19 5522.451 7291.96 5511.611 7289.707 Z M 5707.528 6705.072 C 5631.977 6629.9 5569.691 6568.571 5568.721 6568.571 C 5567.912 6568.571 5530.864 6604.628 5486.697 6648.572 L 5406.13 6728.734 L 5543.968 6865.879 L 5681.967 7003.184 L 5763.181 6922.378 L 5844.557 6841.412 L 5707.528 6705.072 Z M 5476.991 6491.95 C 5509.994 6459.113 5537.173 6431.426 5537.173 6430.622 C 5537.173 6428.69 5473.755 6366.073 5093.893 5993.111 C 4914.64 5817.012 4752.859 5658.137 4734.416 5639.948 L 4700.766 5606.95 L 4586.386 5624.334 C 4523.292 5633.831 4471.522 5642.041 4471.198 5642.362 C 4469.904 5643.489 4440.298 5867.556 4440.621 5872.386 C 4441.107 5876.41 4455.506 5891.379 4529.116 5963.815 L 4617.286 6050.255 L 4667.6 6000.516 C 4700.604 5967.678 4719.856 5949.811 4723.738 5948.04 C 4741.696 5940.636 4761.757 5951.743 4764.83 5970.736 C 4766.934 5984.419 4765.64 5986.029 4710.796 6041.08 L 4659.511 6092.106 L 4674.072 6106.755 C 4682.161 6114.803 4696.56 6128.646 4706.104 6137.499 L 4723.577 6153.757 L 4773.244 6104.501 C 4806.247 6071.825 4824.852 6054.44 4828.896 6052.669 C 4846.854 6045.265 4866.914 6056.372 4869.988 6075.366 C 4872.092 6089.048 4870.798 6090.819 4816.277 6145.226 L 4765.478 6195.931 L 4797.025 6227.319 L 4828.573 6258.708 L 4878.401 6209.291 C 4905.742 6182.249 4930.333 6158.908 4933.245 6157.459 C 4941.172 6153.596 4952.497 6154.079 4960.586 6158.908 C 4972.396 6165.83 4977.735 6178.707 4974.176 6192.067 C 4972.558 6198.345 4966.41 6204.945 4921.92 6249.533 L 4871.445 6299.755 L 4902.992 6331.144 L 4934.539 6362.532 L 4984.691 6312.793 C 5012.194 6285.268 5036.946 6262.088 5039.373 6261.283 C 5062.507 6252.591 5085.642 6273.195 5079.333 6296.697 C 5077.715 6302.974 5071.568 6309.574 5027.401 6353.679 L 4977.411 6403.579 L 5008.958 6434.968 L 5040.506 6466.356 L 5090.334 6416.939 C 5117.675 6389.736 5142.104 6366.717 5144.531 6365.752 C 5167.665 6357.22 5190.8 6377.824 5184.491 6401.326 C 5182.873 6407.603 5176.725 6414.364 5132.721 6458.308 L 5082.892 6508.208 L 5114.763 6539.114 L 5146.634 6570.02 L 5195.168 6521.73 C 5221.7 6495.17 5245.644 6472.312 5248.232 6470.864 C 5255.674 6467 5271.691 6468.61 5278.647 6473.922 C 5289.486 6482.131 5293.37 6498.711 5287.383 6510.623 C 5285.766 6513.681 5262.792 6537.826 5236.422 6564.225 L 5188.535 6612.193 L 5230.598 6653.079 L 5272.661 6693.804 L 5344.654 6622.818 C 5384.29 6583.702 5443.826 6524.788 5476.991 6491.95 Z"/>
  </g>
</svg>